<svg width="90" height="56" viewBox="0 0 90 56" fill="none" xmlns="http://www.w3.org/2000/svg">
<rect width="90" height="56" fill="white"/>
<path d="M25.0208 12C30.0653 12 34.2254 13.5086 37.5011 16.5257C40.8095 19.5124 42.4638 23.3219 42.4638 27.9543C42.4638 32.5867 40.8095 36.4267 37.5011 39.4743C34.2254 42.4914 30.0653 44 25.0208 44H12V12H25.0208ZM24.8243 37.5543C27.7724 37.5543 30.18 36.6552 32.0471 34.8571C33.9143 33.059 34.8478 30.7581 34.8478 27.9543C34.8478 25.1505 33.9143 22.8648 32.0471 21.0971C30.18 19.3295 27.7724 18.4457 24.8243 18.4457H19.4685V37.5543H24.8243Z" fill="#0E0F13"/>
<path d="M70.2355 12H77.5074V44H71.3164L55.7406 24.0229V44H48.4195V12H55.151L70.2355 31.52V12Z" fill="#0E0F13"/>
</svg>
